<svg xmlns="http://www.w3.org/2000/svg" xmlns:xlink="http://www.w3.org/1999/xlink" viewBox="0 0 725.84 924.07">
    <defs>
        <clipPath id="a">
            <circle cx="362.92" cy="561.15" r="362.92" fill="none" />
        </clipPath>
    </defs>
    <g clip-path="url(#a)">
        <rect y="198.23" width="725.84" height="725.84" fill="#59e9ff" />
        <path
            d="M424.45,567.13c-1.3,0-3-.6-3.9.1-20,14.9-43.5,20.5-67.4,24.9-15.3,5.2-26.3-6.9-39.1-12.9h0c-10.7-4.8-25.7-46.2-29-25.4,5,8.6,13.5,15.3,14.1,25.8-4.6-1.8-27.2,67.1-33.1,85.6,6.4,20.5-2,48.6,17.3,62,13.7-9.3,36.4-14.5,43.6-29.4,4.4-9.2,48.8-43,30.7-44.7a8.61,8.61,0,0,1,4.8-2.5c21.1,2.8,10.4-24.5,22.7-36.6h0C399.35,599.43,411.65,583.23,424.45,567.13Z"
            fill="#fff" />
        <path d="M432.05,585.13a.74.74,0,0,1,.1.5C432.15,585.43,432.35,585.13,432.05,585.13Z" fill="none" />
        <path
            d="M844.65,737.53c-22.6-80.6-280.8-228.4-315-272.6-7.6-13.3-40.9,22-44.5,20-32.8,23.6-45.6,61.3-71.8,89.4-30.7,32.9-53.5,72.4-78.2,110.7-8.1,12.5-56,59.4-58.3,25.4-1.4-20.3-10.8-33.7-4.4-59.7,10.5-42.9,25.9-59.4,27.6-67.7,1.9-25.1-8.4-30.5-7.7-36.2-2.5-2.4-12-.1-14.9.2-2.8-1.3-7.1-11.6-6.2-5.8-23.3-50.1-25.9-47.3-47.8-6.4-9.9,18.7-77.3,63.6-104,82.1-24.6,17.1-55.4,28.8-71.3,52-29.8,43.7-39.1,154.8-51.4,242.9-25.6,183-104.8,126.2,176.4,137.4-8.5-1.1,21.5-.8,24.8-1.6,199.8-3.4,430.4,8.2,645.8-4.4C841.05,778.93,853.35,994.63,844.65,737.53Z"
            fill="#1995a8" />
    </g>
    <path d="M541.25,302.13c-.3-.4-.8-.3-1.7.6S539.45,303.43,541.25,302.13Z" fill="#d8e3b7" />
    <path d="M437.25,474.23l3.2-3C439.15,471.93,437.35,472.23,437.25,474.23Z" fill="#d8e3b7" />
    <path d="M264.55,109.83l1.7-3.6C265.05,107.13,265.05,108.63,264.55,109.83Z" fill="#f3ffce" />
    <path
        d="M559.25,241.73c-.7,3.8-19.7,68.3-20.3,67.6-9.1,27.8-7.8-64.5-37.3-76.3,10.1-6.4-50.8-54.9-25.3-59.3-7.7-5.8-20.1-52.6-36.3-63.1-3.4-7.8-83.5-37.6-75.8-1.6-11,10.8-28,16.1-40.7,9.3-4.1,13.2-21.5-.1-36-.5,1-13.4,2.2,2-19.1-12.4a30.17,30.17,0,0,1-3.9,4.4c-13.7,13.2-46.7,31.6-51.6,43.5-15.2,34.2-5.7,75.1-26.5,113.5-4.5,8.3-.2,15.8,2.8,20.1,12.4,18,3.9,49.7,19.3,75.1,2.95,4.9,18.35,37.65,37.4,76.1a74.83,74.83,0,0,0-1.7,9c.1,12.33,6.75,17.79,16.49,20.43,14.79,29,30.36,58.14,43.34,78.81a34.64,34.64,0,0,1-6.63,2.76c9.6-.8-1.2.8-5.1.2,1.5,24.7,24.1,36.1,43.6,44.9,24.1,10.9,63.7-8.4,86.2-26.4,21.3-29.6,48.2-57.9,69.1-86.6,2.2-1.9,5.5-3.2,4.1-7.1.5-16.5,19.3-17.1,13.4-24.7-10.2-4.7,6.6-25.1,7.8-14.8,2.46-4.11,19.86-36.29,29.83-57.33,4-3.14,8-6.17,11.67-7.67,21.5-5.6,32.8-50.9,33.5-67.5h.1C595.05,278.43,573,225.93,559.25,241.73Z"
        fill="#f3ffce" />
    <path
        d="M400.15,434.43c-14.4-20.3-4.8,10.6,6,13.8-1.8,11.2-8.8,9.8,5.1,16.1,19.5-15,11-33.8-2.2-50C415.55,424.83,415.35,439.33,400.15,434.43Z"
        fill="#d8e3b7" />
    <path
        d="M225.65,265.83c6.9,1.6,36.8,16.8,39.5,3.2.7-3.7-7.3-9.1-11.9-11.3-6.7-3.3-25.9-15-33.2-24.7s-12.4-23.2-18.4-23.2-2.2,26.5-11.5,35.1c-7.9,5.8-10.6,21.1-2.1,23.2C192.85,269.23,218.45,264.33,225.65,265.83Z"
        fill="#ff985a" />
    <path
        d="M376.09,244.24c-5.8-.1-22.6,6.7-33.2,6.4-2.9,0-7.6-8.6-13.8-8.4s-9.2,6.4-11.8,11.1-8,5.1-8.2,8.3c-.1,5.3,2.2,8.8,7.2,8.9s28.7-1.5,35.6-.6c17.9,2.2,40.8-15.7,51.5,2.3,1.9,3.3,3.1,7.2,6.4,7.3,6.3.2,7.3-23.2-2.1-26.9C400.89,249.84,383.69,244.34,376.09,244.24Z"
        fill="#ff985a" />
    <path
        d="M517.55,418.63c-14.4,16.5-31.1,61.4-30.9,69.4s21.6-.7,26.5-7.3,8.2-9.7,16.8-14.9c27.9-17,11.1-63.1,43.9-109.5-5.3,3.7-10.9,6.4-17.1,10.9-10.2,7.4-26.3,29.7-35.5,13.7-2.2-4-9.5-3.4-13-.7-6.3,4.9-11.6-2.7-9.1-5.7,17.8-20.8,4-51.3,5.2-58.9,5-32.6,14.5-23.8,23.8.4,1.7,4.3,3.6,14,5.3,8.6,8.8-27.4,31.9-57.9,45-54.2,7.2,2,13.5,24.8,13.5,24.8s-7-97.7-7.7-102.4c0,0-4.5-44.7-29.7-69C508.35,79,466.75,4.93,390.55,0h-1.4c-114-2.4-184.7,136.3-177.4,155.4,13.7-20.7,38.4-24.5,54.4-42.7.6,1.7,11.7,23.4,21.3,28.7s20.8,5.1,37.4,1.7c20.9-5.4,37.7-34.2,42.1-37.9,25-31.4,77.2,13.9,79.7,18.9,9.4,10.4,10.5,24.2,8.5,31.9s-9.2,26.6-7.2,38.6c4.9,30.2,87.1,55.2,30,72.4-5.2,1.5-17.8,28.3-.1,36.1a24.33,24.33,0,0,1,13,14.9c6.4,21.6-56.6,29.8-79,58-8.2,10.3-26.4,20.9-32.7,31.6s18.2,25.9,8.8,34.6c-20.5,19.1-75.1-54.5-113.8-44.5-26.6,6.9-43.6-17-39.9,10.3-5.2,10.7-19-47.3-33.2-61,.8,20.9,22.6,72.7,20.4,85.1s-6.3,30.1,4.7,37.7c23.9,16.6,28.4,46.8,36.1,62.6,13.8,28.7,98.7,38,114.8,18.2,6.5-7.9-1.5-25,8.4-27.3,40.8-9.7,51.6-46.1,64.2-55,37.8-26.6,37-46.5,54.5-63.9,25.8-25.7,19.5,12.6,13.4,14.2Zm-268.7,7.7-.4.6Zm89.6,53.4c-3.8,3.1-47.8-22.9-72.5-14.9-13.6,4-15-4-20.2-15.7-10.3-23.3,44.2-11.2,52.9-8.4,11.5,3.7,32.5,12.8,39.6,17,1.7,3.6,3.5,19.2.2,22Zm167.3-18,.7-.9Z"
        fill="#ff985a" />
    <g class="t-hero__eye1" opacity="0.65">
        <path d="M349.79,321.66c0,7.15-4.27,13-9.5,13s-9.5-5.85-9.5-13V308.88c0-7.15,4.28-13,9.5-13s9.5,5.85,9.5,13Z" />
    </g>
    <g class="t-hero__eye2" opacity="0.65">
        <path d="M243.4,317.66c0,7.15-3.82,13-8.5,13s-8.5-5.85-8.5-13V304.88c0-7.15,3.83-13,8.5-13s8.5,5.85,8.5,13Z" />
    </g>
</svg>