<svg xmlns="http://www.w3.org/2000/svg" viewBox="0 0 959.51 19">
    <path
        d="M1.5,7.5c10.87,0,10.87-6,21.74-6s10.87,6,21.74,6,10.86-6,21.73-6,10.87,6,21.74,6,10.87-6,21.74-6,10.87,6,21.74,6,10.87-6,21.74-6,10.86,6,21.73,6,10.87-6,21.74-6,10.87,6,21.73,6,10.87-6,21.74-6,10.87,6,21.73,6,10.87-6,21.74-6,10.87,6,21.73,6,10.87-6,21.74-6,10.87,6,21.74,6,10.87-6,21.73-6,10.87,6,21.74,6,10.87-6,21.74-6,10.87,6,21.74,6,10.87-6,21.73-6,10.87,6,21.74,6,10.87-6,21.74-6,10.87,6,21.74,6,10.87-6,21.74-6,10.87,6,21.74,6,10.87-6,21.74-6,10.87,6,21.74,6,10.87-6,21.74-6,10.87,6,21.74,6,10.87-6,21.74-6,10.87,6,21.74,6,10.87-6,21.74-6,10.87,6,21.74,6,10.87-6,21.74-6,10.87,6,21.74,6,10.87-6,21.74-6,10.87,6,21.74,6,10.87-6,21.74-6,10.87,6,21.74,6,10.88-6,21.75-6,10.87,6,21.74,6,10.87-6,21.75-6,10.87,6,21.74,6"
        fill="none" stroke="var(--text-subtitle)" stroke-linecap="round" stroke-width="3" />
    <path
        d="M1.5,17.5c10.87,0,10.87-6,21.74-6s10.87,6,21.74,6,10.86-6,21.73-6,10.87,6,21.74,6,10.87-6,21.74-6,10.87,6,21.74,6,10.87-6,21.74-6,10.86,6,21.73,6,10.87-6,21.74-6,10.87,6,21.73,6,10.87-6,21.74-6,10.87,6,21.73,6,10.87-6,21.74-6,10.87,6,21.73,6,10.87-6,21.74-6,10.87,6,21.74,6,10.87-6,21.73-6,10.87,6,21.74,6,10.87-6,21.74-6,10.87,6,21.74,6,10.87-6,21.73-6,10.87,6,21.74,6,10.87-6,21.74-6,10.87,6,21.74,6,10.87-6,21.74-6,10.87,6,21.74,6,10.87-6,21.74-6,10.87,6,21.74,6,10.87-6,21.74-6,10.87,6,21.74,6,10.87-6,21.74-6,10.87,6,21.74,6,10.87-6,21.74-6,10.87,6,21.74,6,10.87-6,21.74-6,10.87,6,21.74,6,10.87-6,21.74-6,10.87,6,21.74,6,10.87-6,21.74-6,10.87,6,21.74,6,10.88-6,21.75-6,10.87,6,21.74,6,10.87-6,21.75-6,10.87,6,21.74,6"
        fill="none" stroke="var(--orange-hi)" stroke-linecap="round" stroke-width="3" />
</svg>