<svg title="Anchor link icon" xmlns="http://www.w3.org/2000/svg" viewBox="0 0 180 180.1">
    <path class="fill-target"
        d="M114.63,65.45a53.66,53.66,0,0,1,.11,75.77l-.13.14L90.89,165.08A53.66,53.66,0,0,1,15,89.2L28.12,76.1a5.65,5.65,0,0,1,9.64,3.74,65.15,65.15,0,0,0,3.42,18.61,5.66,5.66,0,0,1-1.34,5.88L35.22,109a25.42,25.42,0,1,0,35.35,36.53l.36-.36,23.72-23.72a25.41,25.41,0,0,0,0-35.94h0a26.54,26.54,0,0,0-3.67-3A5.67,5.67,0,0,1,88.52,78a14.08,14.08,0,0,1,4.16-10.54L100.12,60a5.65,5.65,0,0,1,7.26-.61,53.25,53.25,0,0,1,7.25,6.07Zm49.75-49.76a53.73,53.73,0,0,0-75.89,0L64.75,39.44l-.12.13A53.63,53.63,0,0,0,72,121.4a5.67,5.67,0,0,0,7.27-.61l7.43-7.43a14.08,14.08,0,0,0,4.13-10.52,5.65,5.65,0,0,0-2.46-4.45,25.91,25.91,0,0,1-3.67-3,25.4,25.4,0,0,1,0-35.93h0L108.4,35.7a25.42,25.42,0,1,1,36.08,35.81l-.36.36-4.63,4.63a5.7,5.7,0,0,0-1.34,5.88A64.81,64.81,0,0,1,141.57,101a5.65,5.65,0,0,0,9.64,3.74l13.1-13.1a53.73,53.73,0,0,0,0-75.89Z" />
</svg>