<svg xmlns="http://www.w3.org/2000/svg" viewBox="0 0 208.05 207.99">
    <path class="fill-target"
        d="M160,104H197.1c8.51,0,10.93,2.46,10.94,11q0,29.73,0,59.48c0,19.45-13.89,33.37-33.4,33.39q-70.72.1-141.46,0c-19.35,0-33.12-13.76-33.14-33Q0,92.68,0,10.46C0,2.63,2.66,0,10.56,0l140,0c6.7,0,9.5,2.85,9.51,9.88q0,44,0,88ZM144,16.39H16v5.32q0,75.71,0,151.41C16,186.21,21.81,192,34.91,192h113.7c-5.53-8.83-4.57-17.91-4.57-26.86q0-71.2,0-142.41Zm16.21,103.77c-.09,1.77-.21,3.08-.21,4.38,0,16.66,0,33.31,0,50,0,10.41,6.36,17.37,15.78,17.47,9.66.11,16.19-6.9,16.21-17.53q.06-25,0-50c0-1.42-.21-2.83-.32-4.31Z" />
    <path class="fill-target"
        d="M80,48c12.65,0,25.31,0,38,0,6.42,0,10,2.81,10.12,7.8.13,5.19-3.53,8.17-10.2,8.18q-37.95,0-75.9,0c-6.5,0-10-2.73-10.1-7.77-.13-5.2,3.55-8.2,10.17-8.21C54.71,48,67.36,48,80,48Z" />
    <path class="fill-target"
        d="M79.52,96c-12.66,0-25.31,0-38,0-6.32,0-9.86-3-9.83-8s3.57-8,9.93-8q38.21,0,76.42,0c6.2,0,9.93,3.12,9.89,8.06S124.31,96,118,96C105.16,96.06,92.34,96,79.52,96Z" />
    <path class="fill-target"
        d="M79.94,128c-12.64,0-25.28,0-37.92,0-6.44,0-10-2.8-10.07-7.81C31.84,115,35.53,112,42.17,112q37.93,0,75.85,0c6.41,0,10,2.83,10.07,7.83.1,5.18-3.56,8.14-10.23,8.15C105.22,128,92.58,128,79.94,128Z" />
    <path class="fill-target"
        d="M79.8,160c-12.65,0-25.3,0-37.95,0-6.41,0-9.92-2.85-10-7.91S35.42,144,41.7,144q38.21,0,76.41,0c6.35,0,9.94,2.92,10,7.93s-3.54,8-9.84,8.05C105.44,160,92.62,160,79.8,160Z" />
</svg>