<svg title="Code icon" xmlns="http://www.w3.org/2000/svg" viewBox="0 0 192.12 153.72">
    <path class="fill-target"
        d="M83.69,153.53l-18.28-5.31A3.6,3.6,0,0,1,63,143.75l41-141.15A3.62,3.62,0,0,1,108.4.14l18.31,5.31a3.62,3.62,0,0,1,2.46,4.48l-41,141.18a3.59,3.59,0,0,1-4.44,2.47h0ZM49.53,119.85l13.06-13.93a3.59,3.59,0,0,0-.21-5.09l0,0-27.23-24L62.34,52.92a3.58,3.58,0,0,0,.31-5.05l-.07-.07-13-14a3.59,3.59,0,0,0-5.09-.18l0,0L1.15,74.2a3.57,3.57,0,0,0-.2,5l.2.2L44.41,120a3.57,3.57,0,0,0,5.06-.08Zm98.19.18L191,79.47a3.57,3.57,0,0,0,.19-5l-.19-.2L147.72,33.64a3.63,3.63,0,0,0-5.12.15l-13,13.93a3.59,3.59,0,0,0,.21,5.09l0,0,27.2,24-27.21,23.9a3.58,3.58,0,0,0-.3,5l.06.08,13,14a3.6,3.6,0,0,0,5.09.21Z" />
</svg>