<svg xmlns="http://www.w3.org/2000/svg" viewBox="0 0 244.42 183.31">
    <path class="fill-target"
        d="M239.79,60.53a2.88,2.88,0,0,1,4.63,2.24V160.4a22.92,22.92,0,0,1-22.92,22.91H22.91A22.91,22.91,0,0,1,0,160.4V62.82a2.86,2.86,0,0,1,4.63-2.24c10.69,8.3,24.87,18.86,73.56,54.23,10.07,7.35,27.05,22.82,44,22.72,17,.14,34.37-15.65,44.06-22.72C215,79.44,229.09,68.84,239.79,60.53ZM122.21,122.21c11.07.19,27-13.94,35-19.77,63.34-46,68.17-50,82.77-61.43a11.45,11.45,0,0,0,4.4-9V22.91A22.92,22.92,0,0,0,221.5,0H22.91A22.91,22.91,0,0,0,0,22.91V32a11.48,11.48,0,0,0,4.39,9C19,52.41,23.82,56.47,87.17,102.44,95.19,108.27,111.14,122.4,122.21,122.21Z" />
</svg>