<svg xmlns="http://www.w3.org/2000/svg" viewBox="0 0 209.49 101.27">
    <path class="fill-target"
        d="M21.77,58.77a26.24,26.24,0,0,0,9.48,16.61Q39.19,82,52.55,82a46.66,46.66,0,0,0,18.2-3.26,43.42,43.42,0,0,0,13.32-8.66l11,15.12q-9.33,9.28-19.74,12.68a72.91,72.91,0,0,1-22.76,3.4,57.17,57.17,0,0,1-20.83-3.73A50.35,50.35,0,0,1,15,87.12,47.75,47.75,0,0,1,4,71.21,51.17,51.17,0,0,1,0,50.69,54.57,54.57,0,0,1,3.68,30.42,47.53,47.53,0,0,1,14.05,14.36a46.91,46.91,0,0,1,16-10.58A54.47,54.47,0,0,1,50.69,0,54.56,54.56,0,0,1,71.94,4,44.89,44.89,0,0,1,88.26,15.55a54.11,54.11,0,0,1,10.63,18.5,74.33,74.33,0,0,1,3.83,24.72Zm56.7-18.86a22.65,22.65,0,0,0-9.64-15,30.61,30.61,0,0,0-18.14-5.65,31,31,0,0,0-18.24,5.65,22.51,22.51,0,0,0-9.75,15Z" />
    <path class="fill-target"
        d="M209.49,98.89H188V39.29q0-11.31-4.25-15.66t-12.33-4.35A23.53,23.53,0,0,0,152,28.92q-7.51,9.64-7.51,26.64V98.89H123V2.28H144.5V26.54Q147.71,14,156.42,7t21.46-7q14.82,0,23.21,9.64t8.4,29.65Z" />
</svg>