<svg xmlns="http://www.w3.org/2000/svg" viewBox="0 0 450.17 174">
    <path class="fill-target" d="M71.26,131.6v2.9H2V31H70.68v2.9H4.87V79.12H66.76V82H4.87v49.6Z" fill="#010101" />
    <path class="fill-target"
        d="M130.54,60,103.29,96l29.86,38.56h-3.62L101.41,98.11l-28,36.39H70L99.7,95.94,72.56,60h3.77l25.08,33.77L127.06,60Z"
        fill="#010101" />
    <path class="fill-target"
        d="M139,160V60h2.9V80.86h.29a33.35,33.35,0,0,1,4.2-9.06,31.83,31.83,0,0,1,6.53-7.17,27.86,27.86,0,0,1,8.62-4.71A32.35,32.35,0,0,1,172,58.25a29.68,29.68,0,0,1,13.26,2.9,28.86,28.86,0,0,1,10,8.12,36.94,36.94,0,0,1,6.31,12.32,52.85,52.85,0,0,1,2.17,15.51,52.16,52.16,0,0,1-2.07,14.9,39.31,39.31,0,0,1-6.09,12.47A28.28,28.28,0,0,1,172,136.09q-11.9,0-19.57-6.16a29.83,29.83,0,0,1-10.29-16.31h-.29V160Zm46.17-29.93a28,28,0,0,0,8.91-8.41,37.18,37.18,0,0,0,5.15-11.6,51.33,51.33,0,0,0,1.66-13,50.31,50.31,0,0,0-1.81-13.7A36.35,36.35,0,0,0,193.67,72a25.62,25.62,0,0,0-9-7.9A26.56,26.56,0,0,0,172,61.15a27.56,27.56,0,0,0-12.76,2.9,28.19,28.19,0,0,0-9.49,7.83,35.85,35.85,0,0,0-5.87,11.45,46.22,46.22,0,0,0-2,13.77q0,17.54,8.26,26.89T172,133.34a25.1,25.1,0,0,0,13.15-3.26Z"
        fill="#010101" />
    <path class="fill-target"
        d="M216.79,134.5V60h2.9V78.4H220a28.86,28.86,0,0,1,3.19-7.9A22.39,22.39,0,0,1,229,64.05a28.62,28.62,0,0,1,8.63-4.35,36,36,0,0,1,11.67-1.45v2.9a28,28,0,0,0-13.3,2.1,25,25,0,0,0-9.2,7,29.22,29.22,0,0,0-5.36,10.22,41.28,41.28,0,0,0-1.74,11.89V134.5Z"
        fill="#010101" />
    <path class="fill-target"
        d="M254.69,111.81a32.92,32.92,0,0,0,5.15,11.24,24.66,24.66,0,0,0,9,7.53,29.89,29.89,0,0,0,13.49,2.76q11.73,0,19.49-6.16t9.64-18.48h2.9q-1.59,13-10.29,20.22t-21.46,7.17a33.34,33.34,0,0,1-14.85-2.75,26.18,26.18,0,0,1-10.08-8.19,36.26,36.26,0,0,1-5.79-12.47A60.41,60.41,0,0,1,250,97.24a46.46,46.46,0,0,1,2.75-16.52A38.75,38.75,0,0,1,260,68.47a30.58,30.58,0,0,1,10.44-7.61,30,30,0,0,1,12.17-2.61,31.81,31.81,0,0,1,15,3.33,29.55,29.55,0,0,1,10.29,8.85A36.55,36.55,0,0,1,313.69,83a51.48,51.48,0,0,1,1.52,14.78H252.88A60.36,60.36,0,0,0,254.69,111.81ZM310.43,82a32.21,32.21,0,0,0-5.58-10.8,26.47,26.47,0,0,0-9.21-7.32,28.77,28.77,0,0,0-12.75-2.68,28,28,0,0,0-11.38,2.32,27,27,0,0,0-9.28,6.74,35.07,35.07,0,0,0-6.45,10.65A44.76,44.76,0,0,0,252.88,95h59.43A44.4,44.4,0,0,0,310.43,82Z"
        fill="#010101" />
    <path class="fill-target"
        d="M373.63,72.46A16.82,16.82,0,0,0,368.7,66a20.44,20.44,0,0,0-7.61-3.7,38.91,38.91,0,0,0-9.79-1.16q-7.8,0-12.32,2.1A18.6,18.6,0,0,0,332.31,68a13.16,13.16,0,0,0-2.75,5.29A20.28,20.28,0,0,0,329,77c0,3.67.75,6.49,2.25,8.48a14.38,14.38,0,0,0,6,4.57,64.52,64.52,0,0,0,8.48,2.75q4.59,1.15,10.66,2.75c2.9.78,5.78,1.58,8.62,2.4a29.17,29.17,0,0,1,7.68,3.4,17.46,17.46,0,0,1,5.51,5.51,16,16,0,0,1,2.1,8.7,18,18,0,0,1-2.39,9.57,19.64,19.64,0,0,1-6.23,6.37A26.46,26.46,0,0,1,363,135a43.44,43.44,0,0,1-9.64,1.09q-14.91,0-22.54-6.52T323.18,109h2.9q0,12.6,7,18.48t20.22,5.87a39,39,0,0,0,8.34-.94,25.68,25.68,0,0,0,7.75-3,18.12,18.12,0,0,0,5.73-5.43,14.16,14.16,0,0,0,2.25-8.12,13.07,13.07,0,0,0-2.25-8,17.56,17.56,0,0,0-5.8-5,34.4,34.4,0,0,0-8.19-3.11c-3.09-.77-6.23-1.55-9.42-2.32-3.58-.87-6.72-1.7-9.42-2.47a53,53,0,0,1-7.25-2.6,14.34,14.34,0,0,1-6.81-5.66,18.89,18.89,0,0,1-2.15-9.7,17.69,17.69,0,0,1,1.31-6.38,16.37,16.37,0,0,1,4.34-6.09A23.54,23.54,0,0,1,339.56,60a34.66,34.66,0,0,1,11.74-1.74q12.46,0,19.72,5.65T378.26,82h-2.89A23.42,23.42,0,0,0,373.63,72.46Z"
        fill="#010101" />
    <path class="fill-target"
        d="M440.74,72.46A16.82,16.82,0,0,0,435.81,66a20.44,20.44,0,0,0-7.61-3.7,38.83,38.83,0,0,0-9.78-1.16q-7.83,0-12.32,2.1A18.48,18.48,0,0,0,399.43,68a13.05,13.05,0,0,0-2.76,5.29,21.16,21.16,0,0,0-.58,3.62c0,3.67.75,6.49,2.25,8.48a14.38,14.38,0,0,0,6,4.57,64.52,64.52,0,0,0,8.48,2.75q4.56,1.16,10.65,2.75c2.9.78,5.77,1.58,8.63,2.4a29.17,29.17,0,0,1,7.68,3.4,17.88,17.88,0,0,1,5.51,5.51,16,16,0,0,1,2.1,8.7A18,18,0,0,1,445,125a19.78,19.78,0,0,1-6.24,6.37,26.61,26.61,0,0,1-8.69,3.55,43.44,43.44,0,0,1-9.64,1.09q-14.94,0-22.54-6.52T390.3,109h2.89q0,12.6,7,18.48t20.23,5.87a38.89,38.89,0,0,0,8.33-.94,25.84,25.84,0,0,0,7.76-3,18,18,0,0,0,5.72-5.43,14.16,14.16,0,0,0,2.25-8.12,13.07,13.07,0,0,0-2.25-8,17.56,17.56,0,0,0-5.8-5,33.82,33.82,0,0,0-8.19-3.11c-3.09-.77-6.23-1.55-9.42-2.32-3.57-.87-6.72-1.69-9.42-2.47a53,53,0,0,1-7.25-2.6,14.34,14.34,0,0,1-6.81-5.66,19.11,19.11,0,0,1-2.15-9.7,17.69,17.69,0,0,1,1.31-6.38,16.39,16.39,0,0,1,4.35-6.09A23.54,23.54,0,0,1,406.68,60a34.66,34.66,0,0,1,11.74-1.74q12.46,0,19.71,5.65T445.38,82h-2.9A23.42,23.42,0,0,0,440.74,72.46Z"
        fill="#010101" />
</svg>