<svg title="External link icon" xmlns="http://www.w3.org/2000/svg" viewBox="0 0 180 160">
    <path class="fill-target"
        d="M180,7.5v40a7.51,7.51,0,0,1-12.8,5.3l-11.1-11.1L79.93,117.74a7.5,7.5,0,0,1-10.6,0h0l-7.06-7.06a7.5,7.5,0,0,1,0-10.6h0L138.36,24,127.25,12.85A7.51,7.51,0,0,1,132.5,0h40A7.49,7.49,0,0,1,180,7.48ZM127.2,84.68l-5,5A7.51,7.51,0,0,0,120,95v45.07H20.06V40.1H102.5a7.46,7.46,0,0,0,5.3-2.19l5-5a7.5,7.5,0,0,0-5.3-12.8H15A15,15,0,0,0,0,35V145a15,15,0,0,0,15,15H124.93a15,15,0,0,0,15-15h0V89.92a7.49,7.49,0,0,0-12.74-5.24Z" />
</svg>