<svg title="Github icon" xmlns="http://www.w3.org/2000/svg" viewBox="0 0 204.86 199.73">
    <path class="fill-target"
        d="M68.52,160.83c0,.83-1,1.49-2.15,1.49-1.36.12-2.31-.54-2.31-1.49s1-1.49,2.15-1.49S68.52,159.88,68.52,160.83ZM55.67,159c-.29.82.54,1.77,1.78,2a1.92,1.92,0,0,0,2.56-.82c.25-.83-.54-1.78-1.78-2.15A2.12,2.12,0,0,0,55.67,159Zm18.23-.7c-1.2.29-2,1.07-1.92,2s1.2,1.37,2.44,1.08,2-1.08,1.92-1.92-1.21-1.31-2.4-1.18ZM101.11,0A99,99,0,0,0,0,96.94c0,1.28,0,2.56,0,3.85a103.51,103.51,0,0,0,70,98.77c5.28,1,7.14-2.31,7.14-5S77,177.89,77,169.21c0,0-28.91,6.2-35-12.3,0,0-4.7-12-11.48-15.12,0,0-9.45-6.48.67-6.36a21.77,21.77,0,0,1,15.93,10.66c9,15.94,24.2,11.35,30.11,8.63a22.93,22.93,0,0,1,6.61-13.91c-23.09-2.56-46.38-5.91-46.38-45.63a31.32,31.32,0,0,1,9.74-24.33,39,39,0,0,1,1.08-28C57,40.13,76.82,54,76.82,54a97.57,97.57,0,0,1,51.87,0s19.87-13.88,28.5-11.15a39,39,0,0,1,1.07,28c6.61,7.3,10.66,13,10.66,24.32,0,39.85-24.33,43-47.41,45.63a24.41,24.41,0,0,1,7,19.17c0,13.92-.13,31.14-.13,34.55,0,2.68,1.92,5.94,7.15,5a102.57,102.57,0,0,0,69.29-98.72C204.84,43.51,158.38,0,101.11,0Zm-61,142.43c-.53.42-.41,1.37.29,2.15s1.61,1,2.15.42.41-1.37-.29-2.15S40.69,141.92,40.15,142.45Zm-4.46-3.35c-.29.53.13,1.2,1,1.61a1.24,1.24,0,0,0,1.73-.22l0-.07c.28-.54-.13-1.2-1-1.61-.82-.24-1.47-.12-1.77.3Zm13.38,14.7c-.66.53-.41,1.77.54,2.56,1,1,2.15,1.07,2.68.41s.29-1.77-.53-2.56c-.89-1-2.15-1.06-2.69-.4Zm-4.7-6.06c-.67.41-.67,1.48,0,2.43s1.77,1.37,2.31,1a1.88,1.88,0,0,0,0-2.56C46.1,147.62,45,147.2,44.37,147.74Z" />
</svg>