<svg title="GraphQL icon" xmlns="http://www.w3.org/2000/svg" viewBox="0 0 200 224.78">
    <path class="fill-target"
        d="M119.26,25.79l46.21,26.69a20,20,0,1,1,19.25,33.25v53.36A20,20,0,1,1,165,171.9l-45.93,26.51a20,20,0,1,1-38.24.65L34.62,172.4a20,20,0,1,1-19.21-33.32V85.71a20,20,0,1,1,14.7-36.82,19.66,19.66,0,0,1,4.49,3.53L80.85,25.73a20,20,0,1,1,38.41.06ZM114.43,34a7,7,0,0,1-.55.54l60.5,104.79.77-.22V85.67a20,20,0,0,1-14.59-24.21v0l.18-.69L114.44,34Zm-28.24.55L85.63,34,39.32,60.7A20,20,0,0,1,25.64,85.46h0c-.25.08-.48.14-.72.2v53.45l.79.22L86.23,34.54h0Zm19.44,4.75a20.16,20.16,0,0,1-11.16,0L34,144.09a20.31,20.31,0,0,1,5.61,9.75H160.53a20.14,20.14,0,0,1,5.65-9.78L105.65,39.3Zm9.24,152,46-26.57a10.42,10.42,0,0,1-.35-1.33H39.59l-.2.78,46.25,26.7a20.07,20.07,0,0,1,28.38-.47c.29.29.58.59.86.89Z"
        fill="#e535ab" />
</svg>