<svg title="Japanese icon" xmlns="http://www.w3.org/2000/svg" viewBox="0 0 160.1 164.01">
    <path class="fill-target"
        d="M34.87,30.77c-7.12,1.43-11.39,2.14-23.66,4.1C9.61,27.22,8.36,23.48,4.8,17.08,31.66,14.41,59.24,7.29,70.09,0L81.65,17.08l-1.07.35c-1.24.36-1.24.36-3.73,1.25a6.48,6.48,0,0,0-2,.71c-5.16,2-16.37,5.51-21.35,6.94V48.21H64c7.11,0,11-.18,14.94-.89V66.71a92.21,92.21,0,0,0-15.12-.89H54.79c2.13,5.16,3.38,7.29,7.29,12.45,6.76,9.25,12.1,14.59,21.53,21.88-5.34,5.16-6.41,6.58-11.39,15.48A119.38,119.38,0,0,1,52.48,87.52a195.5,195.5,0,0,1,1.06,22.77v31.13c0,11,.18,16.54,1.07,22.59h-21c.89-6.4,1.07-11.56,1.07-22.59V111.89c0-4.8.18-8.54.89-21-3.38,9.61-5.7,14.41-12.46,26-3,5.16-5.51,8.54-12.09,16.37a58.72,58.72,0,0,0-11-16.9c8.36-7.47,15.3-16.72,22.24-29.71,5-8.89,5-8.89,9.6-20.81h-11A108.49,108.49,0,0,0,4.45,66.89V47.14c5.16.89,9.43,1.07,16.72,1.07h13.7Zm68.84,129H84.14c.53-5.51.89-12.81.89-20.81V32.55a140.83,140.83,0,0,0-.89-18.85,121.78,121.78,0,0,0,17.43.89h40.74a126.06,126.06,0,0,0,17.61-.89A137.5,137.5,0,0,0,159,32.55v104.6a197.33,197.33,0,0,0,1.07,22.77H139.64V148H103.71Zm.35-30.42h35.58V33.09H104.06Z" />
</svg>