<svg title="Javascript icon" xmlns="http://www.w3.org/2000/svg" viewBox="0 0 200 200">
    <path class="fill-target"
        d="M0,0H200V200H0ZM183.62,152.3c-1.46-9.12-7.41-16.79-25-23.94-6.12-2.88-13-4.88-15-9.49a9.85,9.85,0,0,1-.39-5.88c1.25-5.38,7.63-7,12.63-5.5A13.52,13.52,0,0,1,164,115c8.62-5.63,8.62-5.63,14.63-9.37a34.52,34.52,0,0,0-4.9-6.5c-5.25-5.88-12.24-8.88-23.62-8.62l-5.87.74A26.91,26.91,0,0,0,130,99.61a26.13,26.13,0,0,0,4.08,36.74c.21.18.44.35.66.51,11.37,8.5,28,10.37,30.13,18.37,2,9.75-7.25,12.87-16.38,11.75-6.76-1.5-10.5-4.9-14.62-11.13l-15.24,8.77a33.92,33.92,0,0,0,6.75,9.24c14.5,14.63,50.75,13.88,57.25-8.37a28.21,28.21,0,0,0,.62-13.75l.38.56ZM108.76,91.92H90c0,16.15-.08,32.2-.08,48.37,0,10.26.53,19.69-1.15,22.59-2.76,5.74-9.84,5-13,4a16.11,16.11,0,0,1-6.92-7.13,6.72,6.72,0,0,0-1.06-1.63l-15.21,9.37a29.43,29.43,0,0,0,11,12.64,36.64,36.64,0,0,0,26.73,3.37,23.44,23.44,0,0,0,15.09-11.75c4.25-7.75,3.35-17.26,3.31-27.89.1-17.12,0-34.24,0-51.49l0-.46Z"
        fill="#edd718" />
</svg>