<svg title="LinkedIn icon" xmlns="http://www.w3.org/2000/svg" viewBox="0 0 199.69 199.68">
    <path class="fill-target"
        d="M185.43,0H14.22A14.33,14.33,0,0,0,0,14.4V185.29a14.31,14.31,0,0,0,14.22,14.39H185.43a14.35,14.35,0,0,0,14.26-14.39V14.4A14.37,14.37,0,0,0,185.43,0ZM60.35,171.16H30.75V75.86H60.39v95.3ZM45.56,62.85A17.17,17.17,0,1,1,62.72,45.68h0A17.18,17.18,0,0,1,45.56,62.85ZM171.28,171.16H141.7V124.81c0-11-.22-25.28-15.38-25.28-15.42,0-17.78,12-17.78,24.47v47.16H78.94V75.86h28.39v13h.4A31.21,31.21,0,0,1,135.78,73.5c29.95,0,35.5,19.75,35.5,45.42Z" />
</svg>