<svg xmlns="http://www.w3.org/2000/svg" viewBox="0 0 179.54 179.42">
    <path class="fill-target"
        d="M18.23,60A39.62,39.62,0,0,1,37,25.92a1.4,1.4,0,0,0-.73-2.59h0c-16.47,0-29.55,13.12-32,30.11A6.12,6.12,0,0,0,0,59.86c0,3.45,2,6.17,4.65,6.38,2.9,14.58,14.59,23.9,26.4,27.83h0a1.88,1.88,0,0,0,1.64-3.24A43,43,0,0,1,18.23,60Z" />
    <path class="fill-target"
        d="M173.54,23.64c-.43-1.17-.91-2.25-1.38-3.33A44.2,44.2,0,0,0,162.8,6.43a21.25,21.25,0,0,0-15-6.43,19.79,19.79,0,0,0-11.13,3.36C118.07,14.54,88.23,23.2,70.24,23.2s-17,.09-17,.09a40.43,40.43,0,0,0-4.49,71.16c5.21,4.36,10.18,3.8,9.1,9.58s-9.7,42.05-10.78,49.6-1.25,11.86,1.73,15.52,21.35,10.27,29.33,10.27,6-3.75,6-18.89-4-56.8,7.11-56.8c20.84,0,31.7,7.46,48,13.67a23.16,23.16,0,0,0,8.67,2c2.58,0,8.06-.82,15-7.85a44.53,44.53,0,0,0,9.36-13.89c.48-1.12,1-2.24,1.43-3.45a100.73,100.73,0,0,0,5.9-35.32A100.47,100.47,0,0,0,173.54,23.64ZM162.07,91.36c-2.76,6.77-7.59,12.16-11.61,12.16S142.79,98.13,140,91.36a88.65,88.65,0,0,1-5.31-32.22A89.16,89.16,0,0,1,140,26.83c2.76-6.73,6.42-10.78,10.39-10.78s8.75,4.1,11.56,10.78A86.92,86.92,0,0,1,162.07,91.36Z" />
</svg>