<svg title="MongoDB icon" xmlns="http://www.w3.org/2000/svg" viewBox="0 0 515.24 142.47">
    <path class="fill-target"
        d="M62.81,56.7C55.31,23.59,39.66,14.77,35.67,8.54A71.45,71.45,0,0,1,31.31,0c-.21,2.94-.6,4.79-3.1,7C23.19,11.5,1.87,28.88.07,66.5c-1.67,35.08,25.79,56.71,29.42,58.94,2.79,1.37,6.19,0,7.84-1.23,13.24-9.08,31.33-33.3,25.5-67.51"
        fill="#10aa50" />
    <path class="fill-target"
        d="M32.44,106.76c-.69,8.69-1.18,13.73-2.94,18.69,0,0,1.16,8.27,2,17h2.87a158.38,158.38,0,0,1,3.12-18.33C33.74,122.32,32.59,114.38,32.44,106.76Z"
        fill="#b8c4c2" />
    <path class="fill-target"
        d="M37.45,124.15h0c-3.75-1.73-4.83-9.84-5-17.39a354.11,354.11,0,0,0,.81-37.43c-.2-6.55.09-60.66-1.61-68.58a65.92,65.92,0,0,0,4,7.79c4,6.23,19.64,15.05,27.14,48.16C68.66,90.85,50.67,115,37.45,124.15Z"
        fill="#12924f" />
    <path class="fill-target"
        d="M410.08,104.76c2.21,1.76,6.6,2.49,10.48,2.49,5,0,9.95-.93,14.77-5.28s8.27-11.28,8.27-22.17c0-10.46-4-18.95-12.14-23.92-4.61-2.9-10.58-4-17.39-4a14.39,14.39,0,0,0-5.13.62,2.68,2.68,0,0,0-.95,1.47c-.2,1.87-.2,16.05-.2,24.44,0,8.6,0,20.59.2,22.06.11,1.25.74,3.44,2.09,4.35m-20.9-57.6c1.78,0,8.55.31,11.69.31,5.89,0,9.95-.31,20.95-.31,9.21,0,17,2.49,22.51,7.25,6.71,5.8,10.3,13.88,10.3,23.72,0,14-6.37,22.06-12.78,26.61-6.37,4.77-14.67,7.46-26.48,7.46-6.28,0-17.07-.21-26.08-.31h-.18c-.42-.83.77-4.06,1.5-4.14a13.4,13.4,0,0,0,4.23-.84c1.9-.78,2.35-1.75,2.56-5.17.31-6.42.21-14.08.21-22.78,0-6.22.1-18.34-.11-22.17-.31-3.21-1.67-4-4.41-4.66a58,58,0,0,0-5.88-.93c-.21-.62,1.4-3.43,1.93-4"
        fill="#21313c" />
    <path class="fill-target"
        d="M480.59,52.44c-.42.1-.94,1.14-.94,1.65-.11,3.74-.21,13.47-.21,20.2a.66.66,0,0,0,.52.52c1.36.1,4.71.21,7.54.21,4,0,6.29-.52,7.54-1.14,3.35-1.66,4.9-5.29,4.9-9.22,0-9-6.28-12.43-15.6-12.43a27.94,27.94,0,0,0-3.77.21m23.78,41.42c0-9.11-6.71-14.29-19-14.29a47.07,47.07,0,0,0-5.34.11c-.31.1-.62.31-.62.52,0,6.52-.11,17,.21,21.12.21,1.76,1.47,4.25,3,5,1.68.93,5.45,1.14,8.07,1.14,7.22,0,13.62-4,13.62-13.57m-42.69-46.5c.95,0,3.74.31,10.86.31,6.7,0,12.15-.2,18.63-.2,8.06,0,19.16,2.9,19.16,14.91,0,5.88-4.18,10.67-9.63,12.95-.31.1-.31.31,0,.41,7.75,2,14.56,6.73,14.56,15.84,0,8.91-5.55,14.51-13.62,18-4.9,2.17-11,2.89-17.16,2.89-4.71,0-17.34-.49-24.36-.41-.73-.31.67-3.63,1.3-4.14a19.13,19.13,0,0,0,4.75-.75c2.51-.61,2.81-1.42,3.12-5.15.21-3.21.21-14.71.21-22.89,0-11.19.11-18.75,0-22.48-.1-2.89-1.15-3.83-3.14-4.35-1.57-.31-4.19-.62-6.28-.93-.52-.52,1.09-3.62,1.61-4"
        fill="#21313c" />
    <path class="fill-target"
        d="M86,112.18a4.57,4.57,0,0,1-.32-2.1,2.5,2.5,0,0,1,.32-1.39,37.19,37.19,0,0,0,4-.82c1.85-.46,2.54-1.47,2.65-3.84C93,98.45,93,88,92.9,80.61v-.22a3,3,0,0,0-1-2.63,21.08,21.08,0,0,0-5.56-2.45c-.87-.26-1.36-.72-1.34-1.26s.58-1.18,1.73-1.4A66.41,66.41,0,0,0,100.86,69a2,2,0,0,1,.41,1.47c0,.32,0,.67-.08,1-.09,1-.19,2.22-.19,3.4a.78.78,0,0,0,1.32.44c5.94-4.66,11.27-6.32,14-6.32,4.5,0,8,2.15,10.71,6.57a.74.74,0,0,0,.61.36.72.72,0,0,0,.57-.31c5.46-4.15,10.88-6.62,14.51-6.62,8.57,0,13.69,6.42,13.69,17.16,0,3.09,0,7-.06,10.66,0,3.2,0,6.21,0,8.29A2.87,2.87,0,0,0,158,107.3a22.27,22.27,0,0,0,5.36,1.32h.09a8,8,0,0,1-.54,3.5c-.57,0-1.36-.05-2.34-.1-1.78-.08-4.22-.21-7.06-.21-5.69,0-8.67.11-11.51.3a8.56,8.56,0,0,1,0-3.49,29.73,29.73,0,0,0,3.49-.76c1.81-.6,2.34-1.42,2.45-3.83,0-1.71.37-16.78-.21-20.36a9.12,9.12,0,0,0-9.45-8.06,16.62,16.62,0,0,0-9.42,3.6,1.31,1.31,0,0,0-.34.88v.08a38.65,38.65,0,0,1,.41,7.59c0,2,0,4,0,6,0,4.16,0,8.08,0,11a2.78,2.78,0,0,0,2.2,2.89l1.39.32c.82.2,1.67.4,2.94.61a5.57,5.57,0,0,1,0,2.6,2.06,2.06,0,0,1-.37.89c-3.17-.11-6.42-.2-11.11-.2-1.42,0-3.74.06-5.79.11-1.66,0-3.23.09-4.12.1a4,4,0,0,1-.31-1.81,3.15,3.15,0,0,1,.32-1.68l1.26-.24c1.1-.19,2-.36,3-.58,1.54-.49,2.13-1.34,2.24-3.31.31-4.61.54-17.89-.11-21.22-1.11-5.33-4.14-8-9-8a17,17,0,0,0-9.42,3.59A2.89,2.89,0,0,0,101,81v5.49c0,6.67,0,15,.12,18.56a2.94,2.94,0,0,0,2.56,2.9c.46.13,1.24.26,2.16.41l1.69.29a7.47,7.47,0,0,1-.28,3.51c-.91,0-2-.06-3.32-.12-2-.09-4.41-.19-7.18-.19-3.28,0-5.56.1-7.39.19-1.23.06-2.29.11-3.35.12"
        fill="#21313c" />
    <path class="fill-target"
        d="M191.14,73.44a8.86,8.86,0,0,0-5,1.41c-3.64,2.21-5.49,6.63-5.49,13.12,0,12.15,6.08,20.63,14.8,20.63a9.28,9.28,0,0,0,6.38-2.26c2.68-2.18,4.1-6.64,4.1-12.89,0-12-6-20-14.8-20m1.68,39.67c-15.74,0-21.34-11.55-21.34-22.35,0-7.54,3.08-13.44,9.16-17.54A28.09,28.09,0,0,1,194.8,69c12,0,20.39,8.63,20.39,21,0,8.4-3.35,15-9.68,19.19-3,1.86-8.34,3.88-12.7,3.88"
        fill="#21313c" />
    <path class="fill-target"
        d="M351.36,73.44a8.87,8.87,0,0,0-5,1.41c-3.64,2.21-5.49,6.63-5.49,13.12,0,12.15,6.08,20.63,14.79,20.63a9.31,9.31,0,0,0,6.4-2.26c2.68-2.18,4.1-6.64,4.1-12.89,0-12-5.94-20-14.79-20M353,113.11c-15.73,0-21.34-11.55-21.34-22.34,0-7.56,3.09-13.45,9.18-17.55A28,28,0,0,1,355,69c12,0,20.4,8.64,20.4,21,0,8.41-3.35,15-9.69,19.18-3,1.87-8.33,3.89-12.7,3.89"
        fill="#21313c" />
    <path class="fill-target"
        d="M298.37,73c-4.85,0-8,3.83-8,9.75s2.71,13,10.3,13a7.4,7.4,0,0,0,4.84-1.87c1.76-1.62,2.94-5,2.94-8.52,0-7.73-3.77-12.34-10.07-12.34m-.62,40.91a8,8,0,0,0-3.93,1c-3.83,2.45-5.61,4.9-5.61,7.75a8.27,8.27,0,0,0,3.26,6.67c2.69,2.28,6.33,3.4,11.11,3.4,9.41,0,13.63-5.06,13.63-10.07,0-3.49-1.76-5.83-5.36-7.16-2.77-1-7.41-1.57-13.09-1.57m.63,24c-5.65,0-9.72-1.19-13.19-3.86a12.37,12.37,0,0,1-4.91-9.16,7.18,7.18,0,0,1,1.86-4.66c1-1.12,3.26-3.21,8.53-6.83A.48.48,0,0,0,291,113a.42.42,0,0,0-.33-.43c-4.34-1.66-5.65-4.42-6.05-5.89a.58.58,0,0,0,0-.23,1.37,1.37,0,0,1,.55-1.69c.61-.43,1.58-1,2.62-1.62a36.13,36.13,0,0,0,4.21-2.74.69.69,0,0,0,0-1,.71.71,0,0,0-.14-.1c-6.42-2.16-9.66-6.93-9.66-14.22A14.14,14.14,0,0,1,288,73.5c2.58-2,9.07-4.5,13.27-4.5h.24a27.4,27.4,0,0,1,10.13,2.25,16.09,16.09,0,0,0,6,1c3.58,0,5.14-1.14,6.48-2.46a5.63,5.63,0,0,1,.35,1.86,7,7,0,0,1-1.17,4.25,5.27,5.27,0,0,1-4,1.75,4.18,4.18,0,0,1-.49,0,13.78,13.78,0,0,1-2.45-.41l-.4.14c-.13.19,0,.4.06.66l.06.16a28.14,28.14,0,0,1,.58,4c0,7.63-3,11-6.25,13.41a21.43,21.43,0,0,1-10.79,4.17h0l-1.25.11-1.23.1H297c-.7.2-2.55,1.07-2.55,2.71,0,1.35.84,3,4.82,3.33l2.58.19c5.26.36,11.82.82,14.91,1.86a10.35,10.35,0,0,1,6.9,9.94c0,6.84-4.87,13.27-13,17.2a28.14,28.14,0,0,1-12.3,2.76"
        fill="#21313c" />
    <path class="fill-target"
        d="M274.32,108.53a18.44,18.44,0,0,1-6-1.56,2.72,2.72,0,0,1-.74-1.47c-.21-3.21-.21-12.53-.21-18.63,0-5-.83-9.31-2.94-12.42a12.61,12.61,0,0,0-10.68-5.6c-4.09,0-9.53,2.8-14,6.63-.11.1-.8.76-.79-.26s.17-3.09.27-4.41a2.25,2.25,0,0,0-.69-1.92c-2.94,1.47-11.19,3.43-14.24,3.73-2.23.43-2.79,2.57-.41,3.31h0a20.76,20.76,0,0,1,5.39,2.37,2.84,2.84,0,0,1,.84,2.59c.1,6.94.1,17.61-.21,23.41-.1,2.28-.74,3.11-2.41,3.52l.15,0a31.76,31.76,0,0,1-3.87.72c-.53.52-.53,3.52,0,4.15,1.05,0,6.37-.31,10.78-.31,6.07,0,9.21.31,10.79.31a5.79,5.79,0,0,0,.42-4.15,21.55,21.55,0,0,1-4.3-.62c-1.67-.41-2.09-1.24-2.2-3.1-.2-4.88-.2-15.23-.2-22.27,0-2,.52-2.9,1.15-3.44a13.79,13.79,0,0,1,8.58-3.1,9.37,9.37,0,0,1,6.38,2.17,8.93,8.93,0,0,1,3,5.86c.41,3.92.31,11.81.31,18.63,0,3.73-.31,4.66-1.67,5.07a16.67,16.67,0,0,1-4.3.83c-.63.63-.42,3.52,0,4.15,2.72,0,5.88-.31,10.47-.31,5.76,0,9.43.31,10.9.31a5.86,5.86,0,0,0,.42-4.15"
        fill="#21313c" />
</svg>