<svg title="NextJS icon" xmlns="http://www.w3.org/2000/svg" viewBox="0 0 200 199.91">
    <path class="fill-target"
        d="M148.43,187.42c-.74.39-.7.55,0,.18a1.94,1.94,0,0,0,.58-.4c0-.13,0-.11-.61.22Zm1.47-.79c-.35.27-.35.3.08.08a1.22,1.22,0,0,0,.43-.31C150.41,186.26,150.31,186.3,149.9,186.63Zm1-.59c-.35.27-.35.3.08.07a1.16,1.16,0,0,0,.43-.3c0-.14-.1-.1-.51.24Zm1-.59c-.35.28-.35.31.07.08a1.14,1.14,0,0,0,.44-.31c0-.12-.11-.09-.52.24Zm1.34-.87c-.68.43-.89.72-.3.39.43-.25,1.13-.78,1-.8a4.3,4.3,0,0,0-.72.41ZM93.45,0l-3,.27A100.15,100.15,0,0,0,18.59,41.73,98.85,98.85,0,0,0,1,85.41,76.2,76.2,0,0,0,0,100,76.3,76.3,0,0,0,1,114.52a100.33,100.33,0,0,0,68.36,80.76,105.61,105.61,0,0,0,21.11,4.38,185.34,185.34,0,0,0,19.15,0,100.93,100.93,0,0,0,36-10.53c1.72-.89,2-1.12,1.82-1.31Q139.19,177,131.13,166l-16-21.6-20-29.63q-10-14.88-20.17-29.62c-.08,0-.16,13.15-.19,29.22-.06,28.15-.08,29.29-.44,30a3.51,3.51,0,0,1-1.71,1.77c-.61.31-1.18.38-4.13.38H65.1l-.9-.57a3.65,3.65,0,0,1-1.31-1.42l-.41-.89,0-39.16.06-39.19.61-.76a5.26,5.26,0,0,1,1.46-1.19c.79-.39,1.11-.44,4.49-.44,4,0,4.65.16,5.69,1.3Q87,82.25,99,100.48c13,19.68,30.71,46.54,39.43,59.74l15.82,24,.8-.53a102.46,102.46,0,0,0,20.53-18,99.45,99.45,0,0,0,23.53-51.1A77.11,77.11,0,0,0,200,100a77.11,77.11,0,0,0-.9-14.56A100.36,100.36,0,0,0,130.69,4.66,104.82,104.82,0,0,0,109.88.29C108,.11,95.08-.1,93.47.06Zm40.91,60.46a3.9,3.9,0,0,1,2,2.3c.16.51.2,11.37.16,35.86l-.05,35.13-6.2-9.48L124,114.81V89.25c0-16.52.07-25.79.19-26.24a4,4,0,0,1,1.93-2.46c.8-.41,1.1-.45,4.17-.45C133.21,60.1,133.72,60.14,134.36,60.49Z" />
</svg>