<svg xmlns="http://www.w3.org/2000/svg" viewBox="0 0 415.32 138.83">
    <path class="fill-target"
        d="M0,134.11V11.82H89.21V131.75H73.85v-7.68H14.77v10ZM73.85,60.85V25.4H14.77V60.85Zm0,50.22V73.26H14.77v37.81Z" />
    <path class="fill-target"
        d="M187.87,28.36V0h14.77V28.36H262.9v13H209.14a284.2,284.2,0,0,0,23,30.72q13,14.78,34.86,29.54a40.88,40.88,0,0,0-5.91,5.9,87,87,0,0,0-4.73,7.68,231,231,0,0,1-18.9-17.13,26.26,26.26,0,0,0-3.84-4.13c-1.39-1.19-2.76-2.46-4.14-3.85s-2.66-2.65-3.84-3.84Q218.6,78,214.46,72.67q-3-4.12-7.09-9.75t-4.73-6.2v39H231V109.3H202.64v29.53H187.87V109.3H159.51V95.71h28.36V55.53a362.94,362.94,0,0,1-24.81,33.09,242.39,242.39,0,0,1-29.54,27.17A58.67,58.67,0,0,0,124.66,104q13.58-10,17.72-14.18a285.91,285.91,0,0,0,19.5-21.27q7.67-8.26,20.08-27.17H128.79v-13Z" />
    <path class="fill-target"
        d="M277.67,36.63V26h58.49V36.63Zm6.5,99.25V86.25h45.49v47.27H315.48v-5.91H297.17v8.27Zm1.77-117.57V7.09h42.54V18.31Zm0,37.81V45.49h42.54V56.12Zm0,19.5v-10h42.54v10ZM315.48,117V97.48H297.17V117Zm21.27-99.26V6.5H410V17.72H372.79l-3,16h31.91V62h13.58V74.44H333.21V62h17.72l2.95-17.13H340.29V33.67h15.36l3.55-16Zm4.13,120.52V84.48h66.17v53.17H392.87v-5.31h-39v5.9Zm52-18.31v-23h-39v23ZM388.15,62V44.9H367.47l-3,17.13Z" />
</svg>