<svg title="NodeJS icon" xmlns="http://www.w3.org/2000/svg" viewBox="0 0 200 233.33">
    <path class="fill-target"
        d="M100,233.33a17,17,0,0,1-8.67-2.39L63.7,214.05c-4.12-2.38-2.1-3.23-.74-3.72a59.65,59.65,0,0,0,13-6.4,2.08,2.08,0,0,1,2.06.17L98.7,216.34a2.62,2.62,0,0,0,2.57,0l80.82-48a2.73,2.73,0,0,0,1.26-2.32V68.67a2.75,2.75,0,0,0-1.27-2.35L101.27,17a2.55,2.55,0,0,0-2.56,0L18,66.34a2.74,2.74,0,0,0-1.31,2.34V166A2.62,2.62,0,0,0,18,168.27l20.79,12.49c12.3,6.35,19.58-.09,19.58-7.61V77.46A2.41,2.41,0,0,1,60.7,75H72.6A2.42,2.42,0,0,1,75,77.45h0v95.68c0,17-10.08,26.69-25.63,26.69-4.77,0-8.54,0-19-5.36L8.67,181.57A18.19,18.19,0,0,1,0,166V67.29A18.13,18.13,0,0,1,8.68,51.71L91.33,2.3a17.51,17.51,0,0,1,17.36,0l82.63,49.41A18.15,18.15,0,0,1,200,67.29V166a18.22,18.22,0,0,1-8.68,15.6l-82.63,49.36a16.84,16.84,0,0,1-8.69,2.39Z"
        fill="#689f63" />
    <path class="fill-target"
        d="M125.49,166.67c-33.65,0-43.75-16.47-43.75-30.87a2.42,2.42,0,0,1,2.37-2.47H94.8a2.42,2.42,0,0,1,2.38,2.1c1.6,11.25,8.72,16.22,28.28,16.22,17.39,0,24.52-5.39,24.52-14.94,0-5.51-1.8-9.59-28.85-12.34-22.62-2.31-36.61-7.48-36.61-26.19,0-17.26,14.06-27.34,37.62-27.34,24,0,39.82,7.29,41.24,26.47a2.64,2.64,0,0,1-.65,1.9A2.34,2.34,0,0,1,161,100H150.26a2.39,2.39,0,0,1-2.32-1.93c-2.29-8.81-8.84-12.19-25.81-12.19-19,0-21.23,6.64-21.23,11.77,0,6.25,2.63,8,28.28,11.55,25.4,3.47,37.46,8.4,37.46,26.86,0,18.63-15,30.61-41.19,30.61Z"
        fill="#689f63" />
</svg>