<svg title="Other category" xmlns="http://www.w3.org/2000/svg" viewBox="0 0 220.33 220.34">
    <path class="fill-target"
        d="M110.07,220.34C48.27,220.34-.72,170.91,0,107.52.69,48.07,49.62,0,110.31,0c61.18,0,110,49.59,110,111.57C220.37,171,170.3,220.35,110.07,220.34Zm0-127.24a17.06,17.06,0,1,0,17.08,17.3A17.27,17.27,0,0,0,110.11,93.1Zm-38.17,17a17.12,17.12,0,0,0-16.8-17c-9.28-.08-17.39,8-17.24,17.16a17.36,17.36,0,0,0,17.43,16.95A17,17,0,0,0,71.94,110.07Zm76.37,0a17.09,17.09,0,0,0,17.09,17.18c9.16-.13,17-7.93,17-16.93A17.44,17.44,0,0,0,165.14,93.1,17.11,17.11,0,0,0,148.31,110Z" />
</svg>