<svg xmlns="http://www.w3.org/2000/svg" xmlns:xlink="http://www.w3.org/1999/xlink" viewBox="0 0 306.41 306.41">
    <defs>
        <clipPath id="a">
            <circle cx="153.2" cy="153.2" r="146.2" fill="none" />
        </clipPath>
    </defs>
    <g clip-path="url(#a)">
        <path class="fill-target" fill="currentColor"
            d="M264.86,251.41c-7.31-26-52.5-44.83-64.33-59.47,8.65-5.39,3.89-19.55,13.2-34.08,4.29-5,6.55-14.85,6.73-19.05h0a16.12,16.12,0,0,0,0-4c-.49-6.73-2.18-30.16-2.37-31.47,0,0-1.47-14.52-9.65-22.42-15-14.55-28.53-38.63-53.29-40.22h-.45C119.61,39.92,95.59,87.72,95.17,98c-1.78,9.31-1,19.56-6.33,29.3-1.46,2.7-.06,5.13.91,6.53,3.35,4.86,2,12.79,4.33,20.06a6.36,6.36,0,0,0-.5-.53c.26,6.79,7.35,23.62,6.63,27.65s-2,9.78,1.53,12.25a21,21,0,0,1,6.21,7c-1.5,2.44-3.7,6.93-7.09,14.11-3.21,6.08-25.11,20.67-33.79,26.68-8,5.55-30.31,11.21-23.16,16.89,27,21.43,39,27.43,51,33.43,10.43,5.21,26,10,39,11-2.76-.36,31.92,2.26,33,2,52-14,43-13,58-20C243.86,271.41,247.86,269.41,264.86,251.41Z" />
    </g>
    <circle class="stroke-target" cx="153.2" cy="153.2" r="146.2" fill="none" stroke="currentColor"
        stroke-miterlimit="10" stroke-width="14" />
</svg>