<svg title="PHP Icon" xmlns="http://www.w3.org/2000/svg" viewBox="0 0 358.67 229.32">
    <path class="fill-target"
        d="M104.77,87.87H90.67L83,127.44H95.48A30.3,30.3,0,0,0,114,122.75a24.85,24.85,0,0,0,8.22-15.67,17.14,17.14,0,0,0-1.85-14.88,21.09,21.09,0,0,0-15.65-4.33Zm74.58-67.55C80.3,20.32,0,62.55,0,114.66S80.3,209,179.35,209s179.32-42.24,179.32-94.34S278.4,20.32,179.35,20.32ZM130.63,131.63a36.29,36.29,0,0,1-13.7,8.24,64.25,64.25,0,0,1-19.2,2.45H80.06l-4.9,25.14H54.58L73,72.92h39.63a32.93,32.93,0,0,1,26.07,9.38,29.39,29.39,0,0,1,4.92,26.19,41.11,41.11,0,0,1-12.94,23.14Zm60.13,10.7,8.13-41.86a11.34,11.34,0,0,0-1-9.68,14.41,14.41,0,0,0-10.28-2.6H171.25l-10.46,54.18H140.31l18.38-94.56h20.44L174.25,73h18.2a35.48,35.48,0,0,1,23.71,6,19.85,19.85,0,0,1,3.93,19.4l-8.57,44H190.76Zm113.59-33.84a42,42,0,0,1-4.55,12.68,42.62,42.62,0,0,1-8.39,10.46,36.3,36.3,0,0,1-13.71,8.23,63.67,63.67,0,0,1-19.22,2.46H240.84L236,167.48H215.33l18.38-94.54H273.3a32.9,32.9,0,0,1,26.06,9.38,29.31,29.31,0,0,1,5,26.17ZM265.57,87.87H251.43l-7.7,39.58h12.52a30.32,30.32,0,0,0,18.56-4.69A25,25,0,0,0,283,107.09a17.14,17.14,0,0,0-1.9-14.88,21.08,21.08,0,0,0-15.61-4.34Z"
        fill="#4b588d" />
</svg>