<svg title="React icon" xmlns="http://www.w3.org/2000/svg" viewBox="0 0 200 175.01">
    <path class="fill-target"
        d="M163.35,56.71c-2.11-.7-4.22-1.37-6.33-2,.36-1.45.67-2.89,1-4.34,4.81-23.28,1.64-42-9-48.16-10.27-5.9-27,.24-44,15-1.69,1.44-3.33,3-4.9,4.49-1.06-1-2.14-2-3.24-3C79.08,2.92,61.27-3.72,50.61,2.48c-10.21,5.95-13.27,23.57-9,45.6.42,2.19.9,4.34,1.44,6.52-2.5.71-5,1.49-7.27,2.31C15,64.12,0,75.54,0,87.34c0,12.18,15.94,24.41,37.62,31.83,1.75.58,3.51,1.17,5.31,1.68-.58,2.34-1.09,4.65-1.56,7-4.1,21.68-.9,38.87,9.33,44.76,10.55,6.1,28.29-.15,45.55-15.27,1.37-1.23,2.73-2.45,4.1-3.79,1.72,1.68,3.52,3.28,5.31,4.84,16.72,14.39,33.24,20.2,43.44,14.3,10.54-6.1,14-24.57,9.53-47.07q-.52-2.58-1.17-5.27c1.24-.36,2.44-.74,3.67-1.14C183.67,111.79,200,99.72,200,87.34,200,75.5,184.6,64,163.35,56.71ZM110.49,23.55C125,10.9,138.59,5.93,144.77,9.49c6.6,3.79,9.14,19.1,5,39.21-.27,1.33-.54,2.62-.9,3.91a199.52,199.52,0,0,0-26.28-4.14,197.67,197.67,0,0,0-16.66-20.74C107.46,26.28,108.94,24.92,110.49,23.55ZM65.31,107.61c2,3.4,4,6.8,6.17,10.11a175.74,175.74,0,0,1-18.12-2.93,183.44,183.44,0,0,1,6.36-17.38C61.52,100.85,63.36,104.25,65.31,107.61Zm-11.84-47c5.63-1.25,11.6-2.26,17.81-3.06-2.06,3.24-4.1,6.56-6,9.92s-3.79,6.74-5.55,10.16c-2.44-5.82-4.53-11.53-6.25-17ZM64.19,87.53c2.57-5.39,5.39-10.66,8.36-15.85s6.17-10.24,9.53-15.2q8.78-.65,17.93-.66c6.09,0,12.1.23,17.93.66q5,7.38,9.48,15.12t8.48,15.78q-3.93,8.09-8.45,15.92c-3,5.2-6.12,10.23-9.45,15.23-5.81.43-11.87.61-18,.61s-12.07-.19-17.81-.54q-5.1-7.44-9.61-15.24c-3-5.2-5.78-10.46-8.4-15.85Zm70.54,20c2-3.44,3.87-6.91,5.7-10.43a179.14,179.14,0,0,1,6.6,17.31,172.91,172.91,0,0,1-18.36,3.12c2.11-3.28,4.1-6.64,6.05-10Zm5.63-29.88c-1.84-3.44-3.71-6.87-5.67-10.24s-3.9-6.6-6-9.84a178.77,178.77,0,0,1,17.93,3.13A174.11,174.11,0,0,1,140.36,77.65ZM100.09,33.71a173.9,173.9,0,0,1,11.56,14c-7.74-.35-15.51-.35-23.24,0C92.22,42.65,96.17,38,100.09,33.71Zm-45.33-24C61.32,5.93,75.88,11.4,91.25,25c1,.86,2,1.79,3,2.73A197.32,197.32,0,0,0,77.46,48.47a207.54,207.54,0,0,0-26.25,4.06c-.51-2-.94-4-1.37-6.05-3.67-18.91-1.25-33.16,4.92-36.73Zm-9.57,103c-1.64-.47-3.24-1-4.84-1.53A79.66,79.66,0,0,1,15.74,99,17.47,17.47,0,0,1,8.4,87.33c0-7.14,12.34-16.29,30.15-22.5,2.22-.78,4.49-1.48,6.76-2.14a206.5,206.5,0,0,0,9.57,24.85A213.18,213.18,0,0,0,45.19,112.73ZM90.74,151a71.7,71.7,0,0,1-22,13.77,17.34,17.34,0,0,1-13.78.51c-6.21-3.6-8.78-17.38-5.27-35.94.43-2.19.9-4.37,1.45-6.52a195.87,195.87,0,0,0,26.52,3.83,205.87,205.87,0,0,0,16.87,20.86c-1.25,1.22-2.5,2.39-3.75,3.49Zm9.57-9.49c-4-4.29-8-9.06-11.84-14.18,3.75.15,7.62.23,11.52.23s8-.08,11.88-.27a167.46,167.46,0,0,1-11.56,14.21Zm51.05,11.72a17.38,17.38,0,0,1-6.45,12.22c-6.21,3.6-19.45-1.09-33.74-13.36-1.65-1.4-3.29-2.93-5-4.49a193.63,193.63,0,0,0,16.49-20.94,191.49,191.49,0,0,0,26.62-4.1c.4,1.6.75,3.2,1.06,4.77a71.14,71.14,0,0,1,1,25.89Zm7.11-42c-1.09.35-2.19.7-3.32,1a199.73,199.73,0,0,0-10-24.92,197.4,197.4,0,0,0,9.57-24.57c2,.59,4,1.23,5.86,1.84,18.2,6.25,31,15.55,31,22.65,0,7.65-13.63,17.54-33.12,24ZM100,105.39A17.89,17.89,0,1,0,82.12,87.5h0A17.88,17.88,0,0,0,100,105.38Z"
        fill="#61dbfb" />
</svg>