<svg title="Redux icon" xmlns="http://www.w3.org/2000/svg" viewBox="0 0 200 189.68">
    <path class="fill-target"
        d="M138.63,132.38a13.88,13.88,0,0,0,12.49-14.61A14.4,14.4,0,0,0,136.88,104h-.5a14.25,14.25,0,0,0-13.74,14.74,15.15,15.15,0,0,0,4.12,9.61c-8.74,17-21.85,29.48-41.71,40a68.39,68.39,0,0,1-41.21,7.74,35.91,35.91,0,0,1-26-15,37.24,37.24,0,0,1-2.12-39.45,58.79,58.79,0,0,1,17.5-20.36,83.17,83.17,0,0,1-3.5-12.86c-37,26.49-33.22,62.7-22,79.81C16.13,180.71,33.25,188.7,52,188.7a65,65,0,0,0,15.36-1.62,97.68,97.68,0,0,0,71.18-54.44l.12-.26Zm44.57-31.23C163.85,78.43,135.37,66,102.9,66H98.65a13.44,13.44,0,0,0-12.47-7.5H85.8A14,14,0,0,0,72.06,72.66c0,.14,0,.28,0,.41A14.39,14.39,0,0,0,86.31,86.81h.61a14.1,14.1,0,0,0,12.49-8.75H104a96.8,96.8,0,0,1,54.08,16.61,68.47,68.47,0,0,1,27,32.47,34.5,34.5,0,0,1-.38,30,37.14,37.14,0,0,1-35,21A65.16,65.16,0,0,1,125,172.71c-3,2.48-8,6.61-11.64,9.11a80.24,80.24,0,0,0,32.84,7.86c24.35,0,42.45-13.73,49.33-27,7.48-15,6.86-40.21-12.25-61.81ZM54.09,136.86A14.39,14.39,0,0,0,68.33,150.6h.49a14.24,14.24,0,1,0-.37-28.47h-.51a5.43,5.43,0,0,0-1.88.24A93.32,93.32,0,0,1,53,65.94a67.87,67.87,0,0,1,15-39.46c7.5-9.37,21.61-14,31.23-14.23,27-.51,38.21,33.09,39.08,46.45l12.48,3.74C147.86,21.49,122.39,0,98,0,75.19,0,54.09,16.61,45.59,41c-11.61,32.48-4,63.68,10.24,88.67a11,11,0,0,0-1.74,7.23Z"
        fill="#7248b6" />
</svg>