<svg title="Sass icon" xmlns="http://www.w3.org/2000/svg" viewBox="0 0 250 187.52">
    <path class="fill-target"
        d="M215.23,107.79a51.3,51.3,0,0,0-22.66,5.27,48.39,48.39,0,0,1-5.07-11.75,31.27,31.27,0,0,1-.43-9.89,81.61,81.61,0,0,1,3-10.62c0-.43-.55-2.58-5.59-2.62s-9.37,1-9.88,2.31A47.93,47.93,0,0,0,172.5,88c-.9,4.57-10.07,20.9-15.27,29.41a30.27,30.27,0,0,1-3.47-8.59,31.22,31.22,0,0,1-.43-9.88,81.31,81.31,0,0,1,3-10.63c0-.43-.55-2.58-5.59-2.62s-9.37,1-9.88,2.31-1.06,4.45-2.07,7.46-13.26,30.18-16.45,37.25c-1.64,3.6-3.06,6.49-4.06,8.44-.15.31-.27.51-.35.67.12-.2.2-.4.2-.31-.86,1.68-1.37,2.62-1.37,2.62v0c-.67,1.25-1.41,2.38-1.76,2.38a16.25,16.25,0,0,1,.12-7.78c1.83-9.45,6.17-24.14,6.12-24.65,0-.27.82-2.81-2.85-4.18a4.61,4.61,0,0,0-5.16.86c-.31,0-.55.78-.55.78S116.6,95,105.07,95c-7.18,0-17.18,7.89-22.1,15-3.08,1.68-9.76,5.31-16.8,9.18l-8.08,4.45c-.2-.19-.36-.39-.55-.58-14-14.92-39.79-25.47-38.7-45.51.39-7.3,2.93-26.49,49.64-49.77,38.3-19.06,68.9-13.83,74.16-2.19,7.59,16.6-16.35,47.49-56.11,52-15.15,1.68-23.11-4.18-25.09-6.37s-2.39-2.42-3.17-2c-1.29.7-.47,2.73,0,3.94A23.55,23.55,0,0,0,72.66,84.42c7.3,2.38,25.07,3.71,46.55-4.61,24.13-9.29,42.91-35.2,37.41-56.87C151,.9,114.45-6.32,79.91,5.94,59.33,13.25,37.06,24.73,21.06,39.69,2,57.51-1,73,.24,79.51c4.45,23,36.17,38,48.86,49.1-.62.35-1.23.66-1.76,1C41,132.75,16.8,145.41,10.75,158.77c-6.84,15.15,1.13,26,6.36,27.5,16.33,4.53,33-3.64,42-17s7.89-30.9,3.75-38.87c0-.12-.11-.2-.15-.31,1.64-1,3.32-2,5-2.92,3.24-1.92,6.4-3.68,9.18-5.21a60.66,60.66,0,0,0-3.28,16.64c-.7,8.6,2.85,19.73,7.46,24.11a8.23,8.23,0,0,0,6,2c5.39,0,7.82-4.46,10.51-9.77,3.32-6.48,6.25-14,6.25-14s-3.67,20.39,6.37,20.39c3.67,0,7.34-4.72,9-7.14v0s.08-.16.27-.47c.39-.59.59-.94.59-.94v-.11c1.48-2.55,4.72-8.36,9.6-18,6.33-12.42,12.38-27.93,12.38-27.93a79.48,79.48,0,0,0,2.42,10.08,95.2,95.2,0,0,0,5.24,11.72c-1.49,2-2.39,3.2-2.39,3.2a.2.2,0,0,0,0,.08c-1.17,1.56-2.5,3.24-3.86,4.9a137,137,0,0,0-11.72,14.69,4,4,0,0,0,1.09,5.35,9.48,9.48,0,0,0,6.12,1,27.22,27.22,0,0,0,9.19-2.1,32.28,32.28,0,0,0,7.88-4.15,17.6,17.6,0,0,0,7.58-15.54,32.33,32.33,0,0,0-2.85-11c.43-.61.9-1.29,1.33-1.95a210.47,210.47,0,0,0,13.71-23.68,77.8,77.8,0,0,0,2.42,10.08,68.61,68.61,0,0,0,4.45,10,42.83,42.83,0,0,0-13.32,17.22c-2.89,8.32-.61,12.07,3.63,12.93a13.1,13.1,0,0,0,6.68-1.37,30.84,30.84,0,0,0,8.43-4.36c4.9-3.6,9.61-8.64,9.29-15.47a28.78,28.78,0,0,0-2.11-9.14,47.72,47.72,0,0,1,24.26-2.82c21.75,2.54,26,16.14,25.19,21.8a14.45,14.45,0,0,1-6.92,9.76c-1.53.94-2,1.29-1.87,2,.19,1,.9,1,2.19.74A17,17,0,0,0,250,135.54c.61-13.28-12.15-27.89-34.77-27.78ZM47.57,164.29C40.4,172.16,30.3,175.13,26,172.63,21.33,169.92,23.17,158.37,32,150A116,116,0,0,1,49,137.36c1.06-.61,2.58-1.56,4.46-2.7a4.86,4.86,0,0,1,.47-.27c.35-.24.74-.43,1.13-.67A31.19,31.19,0,0,1,47.57,164.29Zm52.49-35.69c-2.5,6.12-7.77,21.76-11,20.94-2.73-.71-4.41-12.62-.54-24.34a53.9,53.9,0,0,1,8.55-15.66c3.94-4.42,8.27-5.82,9.29-4.06C107.74,107.78,101.62,124.77,100.06,128.6Zm43.36,20.7c-1.06.54-2,.9-2.5.61s.43-.94.43-.94,5.43-5.81,7.58-8.47c1.24-1.57,2.69-3.4,4.25-5.43,0,.19,0,.39,0,.61-.05,7-6.76,11.72-9.81,13.59Zm33.43-7.62c-.78-.55-.66-2.38,2-8.09a30.28,30.28,0,0,1,7.43-9.57,14.07,14.07,0,0,1,.74,4.22,13.77,13.77,0,0,1-10.1,13.43Z"
        fill="#c76494" />
</svg>