<svg xmlns="http://www.w3.org/2000/svg" viewBox="0 0 218.49 218.52">
    <path d="M44.23,97a17.32,17.32,0,1,0,0,24.5h130a17.32,17.32,0,1,0,0-24.5Z" fill="#ffb13b" />
    <path
        d="M186.5,141.26a31.82,31.82,0,0,1-17.31-5.07H49.28a32,32,0,1,1,0-53.86H169.19a32,32,0,1,1,17.31,58.93ZM32,106.62a2.64,2.64,0,1,0,1.86,4.5l1.87-1.86-1.87-1.86A2.6,2.6,0,0,0,32,106.62Zm150.79,2.64,1.86,1.86a2.62,2.62,0,0,0,3.73,0,2.64,2.64,0,0,0-1.87-4.5,2.6,2.6,0,0,0-1.86.78Z" />
    <path d="M71.93,54.63A17.32,17.32,0,1,0,54.62,72l91.94,91.94a17.32,17.32,0,1,0,17.32-17.32Z" fill="#ffb13b" />
    <path
        d="M163.88,195.89A32.06,32.06,0,0,1,132.6,170.7L47.8,85.9A32,32,0,1,1,85.89,47.82l84.8,84.8a32,32,0,0,1-6.81,63.27Zm-2.64-34.64v2.64a2.64,2.64,0,1,0,2.64-2.64ZM54.62,52a2.64,2.64,0,0,0,0,5.28h2.63V54.63A2.64,2.64,0,0,0,54.62,52Z" />
    <path d="M121.49,44.25a17.32,17.32,0,1,0-24.49,0v130a17.32,17.32,0,1,0,24.49,0Z" fill="#ffb13b" />
    <path
        d="M109.25,218.52a32,32,0,0,1-26.93-49.31V49.3a32,32,0,1,1,53.85,0V169.22a32,32,0,0,1-26.92,49.3Zm0-35.73-1.87,1.86a2.59,2.59,0,0,0-.77,1.87,2.55,2.55,0,0,0,.77,1.86,2.62,2.62,0,0,0,3.73,0,2.55,2.55,0,0,0,.77-1.86,2.59,2.59,0,0,0-.77-1.87Zm0-153.43a2.6,2.6,0,0,0-1.87.78,2.64,2.64,0,0,0,0,3.73l1.87,1.86,1.86-1.86a2.64,2.64,0,0,0,0-3.73A2.6,2.6,0,0,0,109.25,29.36Z" />
    <path d="M163.88,72a17.32,17.32,0,1,0-17.32-17.32L54.62,146.57a17.32,17.32,0,1,0,17.31,17.32Z" fill="#ffb13b" />
    <path
        d="M54.62,195.89a32,32,0,0,1-6.82-63.27l84.8-84.8A32,32,0,1,1,170.69,85.9l-84.8,84.8A32.06,32.06,0,0,1,54.62,195.89Zm0-34.64a2.64,2.64,0,1,0,2.63,2.64v-2.64Zm106.62-104h2.64a2.64,2.64,0,1,0-2.64-2.64Z" />
    <path d="M44.23,97a17.32,17.32,0,1,0,0,24.5h130a17.32,17.32,0,1,0,0-24.5Z" fill="#ffb13b" />
    <path d="M71.93,54.63A17.32,17.32,0,1,0,54.62,72l91.94,91.94a17.32,17.32,0,1,0,17.32-17.32Z" fill="#ffb13b" />
    <path d="M121.49,44.25a17.32,17.32,0,1,0-24.49,0v130a17.32,17.32,0,1,0,24.49,0Z" fill="#ffb13b" />
    <path d="M163.88,72a17.32,17.32,0,1,0-17.32-17.32L54.62,146.57a17.32,17.32,0,1,0,17.31,17.32Z" fill="#ffb13b" />
</svg>