<svg title="Twitter icon" xmlns="http://www.w3.org/2000/svg" viewBox="0 0 211.43 199.67">
    <path class="fill-target"
        d="M189.7,49.75c.13,2.18.13,4.37.13,6.55,0,66.6-43.6,143.37-123.29,143.37A110.37,110.37,0,0,1,0,177.05a77.9,77.9,0,0,0,10.46.62,79.37,79.37,0,0,0,53.8-21.53c-19.05-.48-35-15-40.52-34.94a46.84,46.84,0,0,0,8.19.78,40,40,0,0,0,11.4-1.72c-19.85-4.68-34.74-25-34.74-49.45v-.63a39.21,39.21,0,0,0,19.58,6.4,53,53,0,0,1-19.32-42,56.38,56.38,0,0,1,5.9-25.43c21.34,30.57,53.38,50.54,89.36,52.73A66.68,66.68,0,0,1,103,50.38C103,22.61,122.36,0,146.37,0A40.72,40.72,0,0,1,178,15.91a78.45,78.45,0,0,0,27.5-12.16,49.68,49.68,0,0,1-19,27.77,77.6,77.6,0,0,0,24.94-7.8A102.82,102.82,0,0,1,189.7,49.77Z" />
</svg>