<svg title="Typescript icon" xmlns="http://www.w3.org/2000/svg" viewBox="0 0 200 200">
    <path class="fill-target"
        d="M0,100V200H200V0H0Zm161.17-8a24.81,24.81,0,0,1,12.51,7.21,31.74,31.74,0,0,1,4.79,6.43c.07.25-8.63,6.08-13.9,9.35-.19.13-.95-.7-1.81-2a11.34,11.34,0,0,0-9.4-5.66c-6.06-.41-10,2.76-9.93,8.06a7.39,7.39,0,0,0,.85,3.75c1.34,2.76,3.82,4.42,11.59,7.78,14.32,6.17,20.45,10.22,24.25,16a29,29,0,0,1,2.32,24.38c-3.17,8.31-11,14-22.12,15.82a61.12,61.12,0,0,1-15.23-.16,36.73,36.73,0,0,1-20.35-10.61,35.31,35.31,0,0,1-5.21-7.71,13.62,13.62,0,0,1,1.84-1.17l7.43-4.29,5.75-3.33,1.21,1.78a26.75,26.75,0,0,0,7.57,7.27c6.38,3.37,15.14,2.89,19.46-1a8.7,8.7,0,0,0,1.11-11.09c-1.55-2.21-4.73-4.08-13.74-8-10.32-4.44-14.76-7.2-18.83-11.58a26.29,26.29,0,0,1-5.49-10,40.17,40.17,0,0,1-.34-12.76,24.36,24.36,0,0,1,20.5-19,50.51,50.51,0,0,1,15.18.44Zm-46.94,8.36.06,8.19h-26v73.95H69.83v-74h-26v-8A81.28,81.28,0,0,1,44,92.28c.1-.14,15.94-.2,35.15-.17l34.95.1Z"
        fill="#2e74c0" />
</svg>