<svg title="Wordpress icon" xmlns="http://www.w3.org/2000/svg" viewBox="0 0 200 200">
    <path class="fill-target"
        d="M100,0A100,100,0,1,0,200,100h0A100.11,100.11,0,0,0,100,0ZM10.08,100a89.31,89.31,0,0,1,7.78-36.57l42.91,117.5A90,90,0,0,1,10.08,100ZM100,189.92a89.48,89.48,0,0,1-25.4-3.67l27-78.39,27.63,75.73a10.58,10.58,0,0,0,.63,1.26A89.93,89.93,0,0,1,100,189.92ZM112.38,57.86c5.4-.28,10.28-.84,10.28-.84a3.72,3.72,0,0,0-.56-7.42s-14.56,1.13-24,1.13c-8.83,0-23.67-1.13-23.67-1.13A3.72,3.72,0,0,0,73.91,57s4.59.56,9.43.84l14,38.39-19.68,59L44.92,57.86C50.32,57.58,55.2,57,55.2,57a3.72,3.72,0,0,0-.57-7.42s-14.55,1.13-24,1.13c-1.69,0-3.67,0-5.81-.12A89.89,89.89,0,0,1,160.72,33.67a9.2,9.2,0,0,0-1.17-.08,15.56,15.56,0,0,0-15.08,16c0,7.41,4.28,13.66,8.83,21.08a47.17,47.17,0,0,1,7.42,24.8c0,7.71-2.94,16.62-6.85,29.07l-9,30ZM145.2,177.69l27.46-79.4a84.87,84.87,0,0,0,6.86-32.22,68,68,0,0,0-.6-9.24A89.94,89.94,0,0,1,145.2,177.69Z"
        fill="#21759b" />
</svg>